<svg xmlns="http://www.w3.org/2000/svg" width="485.21" height="485.21" viewBox="0 0 485.21 485.21"><title>magnifier</title><path d="M471.88 407.57L360.57 296.24a214.27 214.27 0 0 1-64.33 64.32l111.32 111.33a45.481 45.481 0 0 0 64.32-64.32zM363.91 182c0-100.48-81.47-182-182-182S0 81.47 0 182s81.47 182 182 182 181.91-81.56 181.91-182zM182 318.42c-75.3 0-136.51-61.21-136.51-136.42S106.7 45.49 182 45.49 318.42 106.7 318.42 182 257.21 318.42 182 318.42z"/><path d="M75.82 182h30.32A75.9 75.9 0 0 1 182 106.14V75.82A106.27 106.27 0 0 0 75.82 182z"/></svg>